<svg xmlns="http://www.w3.org/2000/svg" xmlns:xlink="http://www.w3.org/1999/xlink" id="Logo_x5F_Berkenbusch_x5F_2025" x="0px" y="0px" viewBox="0 0 1836.9 368.5" style="enable-background:new 0 0 1836.9 368.5;" xml:space="preserve"><style type="text/css">	.st0{fill:#00274E;}	.st1{fill:#FFFFFF;}</style><g>	<polygon class="st0" points="123.5,63.4 65.6,121.3 65.6,305.1 1717.5,305.1 1772.3,250.3 1772.3,63.4  "></polygon>	<g>		<path class="st1" d="M1078.6,142.4H991v-29.1h-29.8v141.9l117.4,0c12.3,0,22.3-10,22.3-22.4v-68   C1100.9,152.4,1090.9,142.4,1078.6,142.4z M1071,229.3h-79.7v-60.9h79.7V229.3z"></path>		<path class="st1" d="M1225.3,229.1h-79.4v-86.7H1116l0.3,90.1c-0.3,14.6,11.4,22.4,21.9,22.7h117V142.3h-29.9V229.1z"></path>		<path class="st1" d="M925.5,142.4h-117v86.9h-114v-60.9l64,0.1L741,187.9h-28.8v24.5h42.3l43.1-45.1v-25H684.1   c-9.7,0-19.4,11.3-19.4,20.8v72.4c0,7.8,10.1,19.6,20.9,19.6h122.9h23.9h6.1v-86.7h79.4v86.7h29.9l-0.3-90.1   C947.7,150.5,936.1,142.6,925.5,142.4z"></path>		<path class="st1" d="M1384.7,186.2h-86.2v-17.8h103.4v-26h-114.3c-10.4-0.1-18.7,11.1-18.8,19.8v31.4c-0.4,12.5,5.6,18.5,18,18   h83.6v17.7h-100.6v25.9l111.7,0c16,0,21.3-8.2,21.2-18.7l0.3-34.4C1403.2,191.1,1396.4,185.9,1384.7,186.2z"></path>		<path class="st1" d="M1700.8,255.1l-0.3-90.1c0.3-14.6-11.4-22.4-21.9-22.7h-92.3l0-30.5l-29.9-0.3v117.7h-111.2v-60.9h99.9v-26   h-107.5c-12.3,0-22.4,10-22.4,22.4v68c0,12.3,10,22.4,22.4,22.4h118.8v0h29.9v-86.7h84.6v86.7H1700.8z"></path>		<path class="st1" d="M264.9,113.3H136.1v141.8l24.9,0h103.9c13.5,0,22-7,22-20.6v-39.1c-0.1-9-5.3-13.7-14.8-15.5   c9.6-3,14.7-12,14.8-24v-24.5C287.1,119.1,279.8,113.1,264.9,113.3z M256.9,229h-91v-33.3h91V229z M256.9,170.4h-91v-31l91,0.5   V170.4z"></path>		<path class="st1" d="M445.1,168.4v60.9H330.9v-60.9l64,0.1l-17.5,19.5h-28.8v24.5h42.3l43.1-45.1v-25H320.5   c-9.7,0-19.4,11.3-19.4,20.8v72.4c0,7.8,10.1,19.6,20.9,19.6h123.1h23.7h6.2v-86.7h47.7v-26h-55.6   C453.4,142.4,445.1,153.5,445.1,168.4z"></path>		<polygon class="st1" points="667.1,142.4 626.7,142.4 559.1,195.6 559.1,113.5 529.3,113.5 529.3,255.1 559.1,255.1 559.1,197.6    623.1,255.1 666.8,255.1 599.2,196.7   "></polygon>	</g></g></svg>